# xmcd CD database file
#
# Track frame offsets:
#	150
#	13926
#	40372
#	57870
#	79427
#	93590
#	106786
#	123778
#	137758
#
# Disc length: 1939 seconds
#
# Revision: 0
# Processed by: cddbd v1.5.2PL0 Copyright (c) Steve Scherf et al.
# Submitted via: CDex 1.70beta2
#
DISCID=74079109
DTITLE=Jakub Litoš - Jazzové improvizace Jakuba Litoše
DYEAR=2001
DGENRE=Jazz
TTITLE0=Jazz for Animals
TTITLE1=Déšť
TTITLE2=Only for Jazzman
TTITLE3=Slunečnice
TTITLE4=Ještě neodcházím
TTITLE5=Tlukot
TTITLE6=Čas
TTITLE7=Osudová cesta
TTITLE8=Pekelná boogie
EXTD=YEAR: 2001
EXTT0=
EXTT1=
EXTT2=
EXTT3=
EXTT4=
EXTT5=
EXTT6=
EXTT7=
EXTT8=
PLAYORDER=
